{"title":"Superman Batman: Apocalypse [BDrip x264 720p - Ac3 Eng - Softsub","uid":6149481,"size":2349185287,"categoryP":"video","categoryS":"hd___movies","magnet":"?xt=urn:btih:92b3dbbe94495180a5f641f649329ba83e9711de&amp;dn=Superman+Batman%3A+Apocalypse+%5BBDrip+x264+720p+-+Ac3+Eng+-+Softsub&amp;tr=udp%3A%2F%2Ftracker.openbittorrent.com%3A80&amp;tr=udp%3A%2F%2Fopen.demonii.com%3A1337&amp;tr=udp%3A%2F%2Ftracker.coppersurfer.tk%3A6969&amp;tr=udp%3A%2F%2Fexodus.desync.com%3A6969","seeders":0,"leechers":4,"uploader":"Collerom","files":1,"time":1296827281,"description":" &lt;a href=&quot;\nhttp://img153.imageshack.us/img153/9427/supermanbatmanapocalypsbf.jpg&quot; rel=&quot;nofollow&quot; target=&quot;_NEW&quot;&gt;\nhttp://img153.imageshack.us/img153/9427/supermanbatmanapocalypsbf.jpg&lt;/a&gt;\n\n\nSuperman/Batman: Apocalypse is a 2010 direct-to-video animated film based on the Superman/Batman comic storyline &quot;The Supergirl from Krypton&quot; and is a sequel to Superman/Batman: Public Enemies. The art style is partly based on that of Michael Turner, who penciled the Superman/Batman  comic book arc. The film is the ninth in the DC Universe Animated Original Movies line released by Warner Premiere and Warner Bros. Animation and the first sequel in the line. It was released on September 28, 2010. The film stars Tim Daly  as Clark Kent/Superman, Kevin Conroy as Bruce Wayne/Batman, Andre Braugher as Darkseid, Summer Glau as Kara Zor-El/Supergirl, Susan Eisenberg as Princess Diana/Wonder Woman, and Edward Asner as Granny Goodness. Despite the title, the film focuses primarily on the introduction of Supergirl and her relationship with Superman; Batman plays only a supporting role.\n\n\n\n\n &lt;a href=&quot;\nhttp://img155.imageshack.us/i/supermanbatmanapocalyps.png/&quot; rel=&quot;nofollow&quot; target=&quot;_NEW&quot;&gt;\nhttp://img155.imageshack.us/i/supermanbatmanapocalyps.png/&lt;/a&gt; &lt;a href=&quot;\nhttp://img825.imageshack.us/i/supermanbatmanapocalyps.png/&quot; rel=&quot;nofollow&quot; target=&quot;_NEW&quot;&gt;\nhttp://img825.imageshack.us/i/supermanbatmanapocalyps.png/&lt;/a&gt; &lt;a href=&quot;\nhttp://img34.imageshack.us/i/supermanbatmanapocalyps.png/&quot; rel=&quot;nofollow&quot; target=&quot;_NEW&quot;&gt;\nhttp://img34.imageshack.us/i/supermanbatmanapocalyps.png/&lt;/a&gt; &lt;a href=&quot;\nhttp://img840.imageshack.us/i/supermanbatmanapocalyps.png/&quot; rel=&quot;nofollow&quot; target=&quot;_NEW&quot;&gt;\nhttp://img840.imageshack.us/i/supermanbatmanapocalyps.png/&lt;/a&gt;\n\n\nGeneral\nComplete name                    : Superman Batman Apocalypse 720p.mkv\nFormat                           : Matroska\nFile size                        : 2.19 GiB\nDuration                         : 1h 18mn\nOverall bit rate                 : 4 006 Kbps\nEncoded date                     : UTC 2011-02-04 08:16:40\nWriting application              : mkvmerge v4.3.0 ('Escape from the Island') built on Sep  5 2010 10:30:51\nWriting library                  : libebml v1.0.0 + libmatroska v1.0.0\n\nVideo\nID                               : 1\nFormat                           : AVC\nFormat/Info                      : Advanced Video Codec\nFormat profile                   : &lt;a class=&quot;__cf_email__&quot; href=&quot;/cdn-cgi/l/email-protection&quot; data-cfemail=&quot;642c0d030c2428504a55&quot;&gt;[email&amp;#160;protected]&lt;/a&gt;&lt;script cf-hash='f9e31' type=&quot;text/javascript&quot;&gt;\n/* &lt;![CDATA[ */!function(){try{var t=&quot;currentScript&quot;in document?document.currentScript:function(){for(var t=document.getElementsByTagName(&quot;script&quot;),e=t.length;e--;)if(t[e].getAttribute(&quot;cf-hash&quot;))return t[e]}();if(t&amp;&amp;t.previousSibling){var e,r,n,i,c=t.previousSibling,a=c.getAttribute(&quot;data-cfemail&quot;);if(a){for(e=&quot;&quot;,r=parseInt(a.substr(0,2),16),n=2;a.length-n;n+=2)i=parseInt(a.substr(n,2),16)^r,e+=String.fromCharCode(i);e=document.createTextNode(e),c.parentNode.replaceChild(e,c)}}}catch(u){}}();/* ]]&gt; */&lt;/script&gt;\nFormat settings, CABAC           : Yes\nFormat settings, ReFrames        : 5 frames\nMuxing mode                      : Header stripping\nCodec ID                         : V_MPEG4/ISO/AVC\nDuration                         : 1h 18mn\nBit rate                         : 3 365 Kbps\nWidth                            : 1 280 pixels\nHeight                           : 720 pixels\nDisplay aspect ratio             : 16:9\nFrame rate                       : 23.976 fps\nColor space                      : YUV\nChroma subsampling               : 4:2:0\nBit depth                        : 8 bits\nScan type                        : Progressive\nBits/(Pixel*Frame)               : 0.152\nStream size                      : 1.79 GiB (82%)\nWriting library                  : x264 core 104 r1713 c276662\n\n\nAudio\nID                               : 2\nFormat                           : AC-3\nFormat/Info                      : Audio Coding 3\nMode extension                   : CM (complete main)\nMuxing mode                      : Header stripping\nCodec ID                         : A_AC3\nDuration                         : 1h 18mn\nBit rate mode                    : Constant\nBit rate                         : 640 Kbps\nChannel(s)                       : 6 channels\nChannel positions                : Front: L C R, Side: L R, LFE\nSampling rate                    : 48.0 KHz\nBit depth                        : 16 bits\nStream size                      : 358 MiB (16%)\n\nText\nID                               : 3\nFormat                           : UTF-8\nCodec ID                         : S_TEXT/UTF8\nCodec ID/Info                    : UTF-8 Plain Text\nLanguage                         : Italian\n\n\n\n\n\n","torrent":{"xt":"urn:btih:92b3dbbe94495180a5f641f649329ba83e9711de","amp;dn":"Superman+Batman%3A+Apocalypse+%5BBDrip+x264+720p+-+Ac3+Eng+-+Softsub","amp;tr":["udp%3A%2F%2Ftracker.openbittorrent.com%3A80","udp%3A%2F%2Fopen.demonii.com%3A1337","udp%3A%2F%2Ftracker.coppersurfer.tk%3A6969","udp%3A%2F%2Fexodus.desync.com%3A6969"],"infoHash":"92b3dbbe94495180a5f641f649329ba83e9711de","infoHashBuffer":{"type":"Buffer","data":[146,179,219,190,148,73,81,128,165,246,65,246,73,50,155,168,62,151,17,222]},"announce":[],"urlList":[]}}